HIERARCHY
ROOT Hips
{
	OFFSET 0.000000 97.167313 0.000000
	CHANNELS 6 Xposition Yposition Zposition Xrotation Yrotation Zrotation
	JOINT Spine
	{
		OFFSET 0.000000 13.784798 0.064400
		CHANNELS 3 Xrotation Yrotation Zrotation
		JOINT Spine1
		{
			OFFSET 0.000000 12.037903 0.404700
			CHANNELS 3 Xrotation Yrotation Zrotation
			JOINT Spine2
			{
				OFFSET 0.000000 17.795601 0.420200
				CHANNELS 3 Xrotation Yrotation Zrotation
				JOINT Neck
				{
					OFFSET 0.000000 39.131302 11.954600
					CHANNELS 3 Xrotation Yrotation Zrotation
					JOINT Head
					{
						OFFSET 0.000000 14.456192 15.627699
						CHANNELS 3 Xrotation Yrotation Zrotation
						JOINT HeadTop_End
						{
							OFFSET 0.000000 15.703506 7.603401
							CHANNELS 3 Xrotation Yrotation Zrotation
							End Site
							{
								OFFSET 0.000000 17.447403 0.000000
							}
						}
					}
				}
				JOINT LeftShoulder
				{
					OFFSET 17.399500 24.608795 1.168800
					CHANNELS 3 Xrotation Yrotation Zrotation
					JOINT LeftArm
					{
						OFFSET 18.980635 5.765305 1.818600
						CHANNELS 3 Xrotation Yrotation Zrotation
						JOINT LeftForeArm
						{
							OFFSET 49.290169 0.000000 0.000000
							CHANNELS 3 Xrotation Yrotation Zrotation
							JOINT LeftHand
							{
								OFFSET 31.562012 0.000000 0.000000
								CHANNELS 3 Xrotation Yrotation Zrotation
								JOINT LeftHandThumb1
								{
									OFFSET 6.133995 -4.388519 7.076070
									CHANNELS 3 Xrotation Yrotation Zrotation
									JOINT LeftHandThumb2
									{
										OFFSET 6.037666 -3.485840 3.485847
										CHANNELS 3 Xrotation Yrotation Zrotation
										JOINT LeftHandThumb3
										{
											OFFSET 6.496506 -3.750763 3.750761
											CHANNELS 3 Xrotation Yrotation Zrotation
											JOINT LeftHandThumb4
											{
												OFFSET 5.616882 -3.242905 3.242910
												CHANNELS 3 Xrotation Yrotation Zrotation
												End Site
												{
													OFFSET -1.254608 7.132141 0.375429
												}
											}
										}
									}
								}
								JOINT LeftHandPinky1
								{
									OFFSET 18.920792 -0.453171 -11.426712
									CHANNELS 3 Xrotation Yrotation Zrotation
									JOINT LeftHandPinky2
									{
										OFFSET 4.919586 0.000000 0.000000
										CHANNELS 3 Xrotation Yrotation Zrotation
										JOINT LeftHandPinky3
										{
											OFFSET 5.233047 0.000000 0.000000
											CHANNELS 3 Xrotation Yrotation Zrotation
											JOINT LeftHandPinky4
											{
												OFFSET 5.571716 0.000000 0.000000
												CHANNELS 3 Xrotation Yrotation Zrotation
												End Site
												{
													OFFSET -3.459808 4.342407 -0.466164
												}
											}
										}
									}
								}
								JOINT LeftHandRing1
								{
									OFFSET 22.726120 -0.094986 -6.500475
									CHANNELS 3 Xrotation Yrotation Zrotation
									JOINT LeftHandRing2
									{
										OFFSET 6.408615 0.000000 0.000000
										CHANNELS 3 Xrotation Yrotation Zrotation
										JOINT LeftHandRing3
										{
											OFFSET 6.150223 0.000000 0.000000
											CHANNELS 3 Xrotation Yrotation Zrotation
											JOINT LeftHandRing4
											{
												OFFSET 6.145386 0.000000 0.000000
												CHANNELS 3 Xrotation Yrotation Zrotation
												End Site
												{
													OFFSET -3.671402 4.923981 -0.202372
												}
											}
										}
									}
								}
								JOINT LeftHandMiddle1
								{
									OFFSET 23.373947 0.000000 0.000001
									CHANNELS 3 Xrotation Yrotation Zrotation
									JOINT LeftHandMiddle2
									{
										OFFSET 6.996567 0.000000 0.000000
										CHANNELS 3 Xrotation Yrotation Zrotation
										JOINT LeftHandMiddle3
										{
											OFFSET 7.015945 0.000000 0.000000
											CHANNELS 3 Xrotation Yrotation Zrotation
											JOINT LeftHandMiddle4
											{
												OFFSET 7.721573 0.000000 0.000000
												CHANNELS 3 Xrotation Yrotation Zrotation
												End Site
												{
													OFFSET -4.651108 6.158463 0.251582
												}
											}
										}
									}
								}
								JOINT LeftHandIndex1
								{
									OFFSET 21.310577 -0.490082 6.209344
									CHANNELS 3 Xrotation Yrotation Zrotation
									JOINT LeftHandIndex2
									{
										OFFSET 7.536453 0.000000 0.000000
										CHANNELS 3 Xrotation Yrotation Zrotation
										JOINT LeftHandIndex3
										{
											OFFSET 7.512344 0.000000 0.000000
											CHANNELS 3 Xrotation Yrotation Zrotation
											JOINT LeftHandIndex4
											{
												OFFSET 10.212402 0.000000 0.000001
												CHANNELS 3 Xrotation Yrotation Zrotation
												End Site
												{
													OFFSET -5.180801 8.690506 1.388433
												}
											}
										}
									}
								}
							}
						}
					}
				}
				JOINT RightShoulder
				{
					OFFSET -17.399500 24.608795 1.168800
					CHANNELS 3 Xrotation Yrotation Zrotation
					JOINT RightArm
					{
						OFFSET -18.980635 5.765305 1.818600
						CHANNELS 3 Xrotation Yrotation Zrotation
						JOINT RightForeArm
						{
							OFFSET -49.290169 0.000000 0.000000
							CHANNELS 3 Xrotation Yrotation Zrotation
							JOINT RightHand
							{
								OFFSET -31.562012 0.000000 0.000000
								CHANNELS 3 Xrotation Yrotation Zrotation
								JOINT RightHandThumb1
								{
									OFFSET -6.133995 -4.388519 7.076070
									CHANNELS 3 Xrotation Yrotation Zrotation
									JOINT RightHandThumb2
									{
										OFFSET -6.037666 -3.485840 3.485847
										CHANNELS 3 Xrotation Yrotation Zrotation
										JOINT RightHandThumb3
										{
											OFFSET -6.496506 -3.750763 3.750761
											CHANNELS 3 Xrotation Yrotation Zrotation
											JOINT RightHandThumb4
											{
												OFFSET -5.616882 -3.242905 3.242910
												CHANNELS 3 Xrotation Yrotation Zrotation
												End Site
												{
													OFFSET 1.254608 7.132141 0.375429
												}
											}
										}
									}
								}
								JOINT RightHandIndex1
								{
									OFFSET -21.310577 -0.490082 6.209344
									CHANNELS 3 Xrotation Yrotation Zrotation
									JOINT RightHandIndex2
									{
										OFFSET -7.536453 0.000000 0.000000
										CHANNELS 3 Xrotation Yrotation Zrotation
										JOINT RightHandIndex3
										{
											OFFSET -7.512344 0.000000 0.000000
											CHANNELS 3 Xrotation Yrotation Zrotation
											JOINT RightHandIndex4
											{
												OFFSET -10.212402 0.000000 0.000001
												CHANNELS 3 Xrotation Yrotation Zrotation
												End Site
												{
													OFFSET 5.180801 8.690506 1.388433
												}
											}
										}
									}
								}
								JOINT RightHandMiddle1
								{
									OFFSET -23.373947 0.000000 0.000001
									CHANNELS 3 Xrotation Yrotation Zrotation
									JOINT RightHandMiddle2
									{
										OFFSET -6.996567 0.000000 0.000000
										CHANNELS 3 Xrotation Yrotation Zrotation
										JOINT RightHandMiddle3
										{
											OFFSET -7.015945 0.000000 0.000000
											CHANNELS 3 Xrotation Yrotation Zrotation
											JOINT RightHandMiddle4
											{
												OFFSET -7.721573 0.000000 0.000000
												CHANNELS 3 Xrotation Yrotation Zrotation
												End Site
												{
													OFFSET 4.651108 6.158463 0.251582
												}
											}
										}
									}
								}
								JOINT RightHandRing1
								{
									OFFSET -22.726120 -0.094986 -6.500475
									CHANNELS 3 Xrotation Yrotation Zrotation
									JOINT RightHandRing2
									{
										OFFSET -6.408615 0.000000 0.000000
										CHANNELS 3 Xrotation Yrotation Zrotation
										JOINT RightHandRing3
										{
											OFFSET -6.150223 0.000000 0.000000
											CHANNELS 3 Xrotation Yrotation Zrotation
											JOINT RightHandRing4
											{
												OFFSET -6.145386 0.000000 0.000000
												CHANNELS 3 Xrotation Yrotation Zrotation
												End Site
												{
													OFFSET 3.671402 4.923981 -0.202372
												}
											}
										}
									}
								}
								JOINT RightHandPinky1
								{
									OFFSET -18.920792 -0.453171 -11.426712
									CHANNELS 3 Xrotation Yrotation Zrotation
									JOINT RightHandPinky2
									{
										OFFSET -4.919586 0.000000 0.000000
										CHANNELS 3 Xrotation Yrotation Zrotation
										JOINT RightHandPinky3
										{
											OFFSET -5.233047 0.000000 0.000000
											CHANNELS 3 Xrotation Yrotation Zrotation
											JOINT RightHandPinky4
											{
												OFFSET -5.571716 0.000000 0.000000
												CHANNELS 3 Xrotation Yrotation Zrotation
												End Site
												{
													OFFSET 3.459808 4.342407 -0.466164
												}
											}
										}
									}
								}
							}
						}
					}
				}
			}
		}
	}
	JOINT LeftUpLeg
	{
		OFFSET 19.899099 -7.885101 -3.429500
		CHANNELS 3 Xrotation Yrotation Zrotation
		JOINT LeftLeg
		{
			OFFSET 1.745560 -36.997807 10.304700
			CHANNELS 3 Xrotation Yrotation Zrotation
			JOINT LeftFoot
			{
				OFFSET -1.745558 -29.803308 -13.615400
				CHANNELS 3 Xrotation Yrotation Zrotation
				JOINT LeftToeBase
				{
					OFFSET 1.181900 -18.539904 15.226099
					CHANNELS 3 Xrotation Yrotation Zrotation
					JOINT LeftToe_End
					{
						OFFSET -0.863701 1.402801 16.534700
						CHANNELS 3 Xrotation Yrotation Zrotation
						End Site
						{
							OFFSET 0.000000 16.616566 0.000000
						}
					}
				}
			}
		}
	}
	JOINT RightUpLeg
	{
		OFFSET -19.899099 -7.885101 -3.429500
		CHANNELS 3 Xrotation Yrotation Zrotation
		JOINT RightLeg
		{
			OFFSET -1.745560 -36.997807 10.304700
			CHANNELS 3 Xrotation Yrotation Zrotation
			JOINT RightFoot
			{
				OFFSET 1.745558 -29.803308 -13.615400
				CHANNELS 3 Xrotation Yrotation Zrotation
				JOINT RightToeBase
				{
					OFFSET -1.181900 -18.539904 15.226099
					CHANNELS 3 Xrotation Yrotation Zrotation
					JOINT RightToe_End
					{
						OFFSET 0.863701 1.402801 16.534700
						CHANNELS 3 Xrotation Yrotation Zrotation
						End Site
						{
							OFFSET 0.000000 16.616566 0.000000
						}
					}
				}
			}
		}
	}
}
MOTION
Frames: 6
Frame Time: 0.033333
-0.173779 76.385056 5.197277 10.568187 -12.991858 7.274191 20.061218 -8.748771 -3.227097 4.267284 -2.265759 -1.715060 4.320596 -2.188963 -1.633771 2.207811 1.626211 1.820274 -27.986693 18.515248 2.240168 -0.000001 0.000000 0.000000 9.806601 -14.958454 -10.187617 -29.625140 4.373769 -48.473842 0.000124 -80.349546 0.000113 -136.764088 10.135324 15.867762 22.170265 -26.955842 21.639048 -18.755158 11.865955 -5.299186 -14.119964 -6.831844 8.163574 -0.000000 0.000001 -0.000001 -0.352207 7.368792 -81.773743 1.697296 4.124417 -44.721849 0.468889 2.298410 -23.057959 -0.000002 0.000000 -0.000006 1.332004 7.030595 -72.173912 3.334059 5.283711 -64.482238 0.663233 2.709497 -27.504103 -0.000000 0.000001 0.000005 2.715252 7.456496 -71.638719 3.021112 5.123241 -61.032788 0.541647 2.462209 -24.809761 -0.000002 -0.000001 0.000006 2.920512 7.536204 -72.179581 2.284163 4.641107 -52.390023 1.014732 3.297083 -34.205512 -0.000002 0.000005 0.000002 -0.740850 19.336885 19.220950 -1.631432 36.102143 30.408740 -0.000091 104.084228 0.000084 -29.791793 -32.691915 7.100505 52.323610 29.641894 -26.183151 42.378325 -24.929953 37.205157 11.676627 -37.605430 -15.022118 0.000001 -0.000001 0.000001 -2.012449 2.205796 21.312796 2.896832 -4.312339 67.768973 3.328291 -4.463955 73.403551 -0.000001 -0.000001 -0.000003 13.456658 -8.790206 78.781888 5.608661 -4.559143 101.801470 4.771101 -4.655765 91.403285 -0.000002 0.000002 -0.000004 8.262340 -7.055137 88.116038 5.520482 -4.576614 100.694269 5.148837 -4.631185 96.066495 0.000001 0.000001 -0.000003 4.707866 -6.937638 92.892041 2.523276 -4.140505 62.703630 1.707108 -3.605275 50.664386 0.000001 0.000005 0.000003 -41.064504 16.136942 3.838820 68.280336 0.601001 -0.301755 -15.410457 3.302076 4.580120 -13.348465 1.491227 -5.679900 -0.000001 -0.000000 0.000000 -49.442568 2.457473 11.172479 59.340335 0.296793 -7.415012 -19.041063 -3.594699 -4.937307 -0.414099 -0.000000 0.000001 -0.000000 -0.000000 0.000000 
-0.440752 76.731506 6.990366 10.989443 -12.295174 7.915680 19.982820 -8.985780 -3.430340 4.217589 -2.322055 -1.744043 4.273351 -2.244040 -1.662367 2.145910 1.626228 1.800528 -28.548034 18.453489 2.207737 -0.000001 -0.000000 -0.000000 9.657075 -15.150225 -10.374881 -30.245509 4.991455 -47.000738 -0.000017 -80.322956 -0.000001 -130.539381 12.963737 12.555463 21.125912 -26.746992 21.049974 -18.222649 11.493028 -5.242625 -13.924216 -6.663220 8.325542 0.000000 0.000001 -0.000001 -0.159744 7.392190 -81.733937 1.697995 4.125153 -44.731739 0.473299 2.308733 -23.167747 -0.000001 0.000001 -0.000000 1.425380 7.068219 -72.326027 3.294978 5.264925 -64.056936 0.683450 2.747955 -27.929062 -0.000001 0.000002 0.000002 2.709114 7.452797 -71.574256 3.028859 5.127514 -61.119449 0.548009 2.475909 -24.957564 0.000002 -0.000002 0.000001 2.726223 7.467980 -71.939432 2.313652 4.663631 -52.753926 1.015294 3.297908 -34.215187 -0.000003 -0.000002 -0.000002 -0.765526 19.572675 19.206810 -1.544339 36.183183 29.916884 0.000027 104.057399 -0.000019 -29.081573 -32.367795 7.517175 51.427722 29.528998 -25.018151 41.995999 -25.179931 35.998703 11.328645 -37.762572 -15.442510 -0.000001 -0.000001 0.000002 -1.987866 2.200492 21.128326 2.874545 -4.303191 67.472222 3.322444 -4.462205 73.328426 -0.000001 0.000000 -0.000001 13.161440 -8.817446 78.262684 5.607561 -4.559357 101.787782 4.771098 -4.655767 91.403279 0.000001 -0.000003 -0.000004 8.243565 -7.087912 87.598617 5.464368 -4.586830 99.991852 5.074312 -4.638479 95.144392 0.000001 0.000000 -0.000007 4.800983 -6.932253 92.582108 2.515599 -4.136538 62.597331 1.691464 -3.592423 50.415180 -0.000001 0.000001 0.000004 -44.841425 15.366519 4.340560 65.102235 -0.115758 -0.143093 -17.171196 4.436919 4.115535 -3.602633 0.464426 -5.395760 -0.000000 -0.000000 0.000000 -47.706368 3.071271 10.165277 59.669789 -0.079504 -7.246660 -21.659163 -3.619310 -4.908696 -0.414043 0.000001 0.000001 -0.000000 0.000000 0.000000 
-0.621962 76.963371 8.837172 11.412412 -11.659370 8.502885 19.879798 -9.221291 -3.568722 4.186891 -2.373429 -1.774652 4.245249 -2.292775 -1.692671 2.078538 1.616124 1.800018 -29.160997 18.336722 2.246805 -0.000002 -0.000000 -0.000000 9.506491 -15.289645 -10.437285 -30.468043 5.777479 -46.235541 -0.000095 -80.356370 -0.000095 -126.791124 14.675481 10.115907 20.058215 -26.528125 20.451852 -17.654741 11.150160 -5.176422 -13.723712 -6.489442 8.490397 0.000000 0.000001 -0.000003 0.037550 7.416478 -81.693161 1.698731 4.125881 -44.741902 0.477837 2.319306 -23.280319 0.000003 -0.000003 -0.000003 1.521258 7.106306 -72.482077 3.255034 5.245410 -63.620863 0.704502 2.787237 -28.364755 -0.000000 0.000002 0.000005 2.702844 7.448959 -71.508133 3.036799 5.131858 -61.208317 0.554576 2.489948 -25.109111 0.000003 -0.000001 0.000001 2.527600 7.396478 -71.693504 2.344077 4.686530 -53.127035 1.015865 3.298737 -34.225132 -0.000002 0.000003 -0.000001 -0.802403 19.887935 19.298264 -1.230778 36.265374 29.081108 0.000014 104.083709 0.000015 -28.329743 -32.100182 7.927434 50.526956 29.393671 -23.846118 41.595538 -25.420064 34.785484 10.971748 -37.917867 -15.868838 0.000003 0.000000 -0.000001 -1.961638 2.191169 20.941703 2.852101 -4.293834 67.172629 3.316553 -4.460435 73.252604 -0.000000 -0.000002 0.000003 12.863525 -8.840228 77.738051 5.606497 -4.559585 101.774258 4.771100 -4.655762 91.403285 0.000003 0.000001 -0.000004 8.223885 -7.121048 87.076238 5.407622 -4.596445 99.282837 4.998994 -4.644616 94.213601 -0.000003 0.000004 -0.000007 4.895115 -6.927993 92.272044 2.507873 -4.132527 62.490084 1.675743 -3.579371 50.163648 -0.000000 -0.000000 0.000007 -48.838223 14.315834 5.063778 61.410292 -0.914067 0.127971 -16.225022 5.268007 2.300814 1.236262 0.000001 0.000001 -0.000000 0.000001 0.000000 -45.953864 3.658977 9.144884 60.056959 -0.412198 -7.068954 -24.335684 -3.666820 -4.815777 -0.413989 0.000002 -0.000001 0.000000 -0.000000 0.000000 
-0.778593 77.077477 10.651478 11.776833 -11.050432 8.972430 19.793999 -9.437235 -3.577444 4.168478 -2.417463 -1.781647 4.228686 -2.333955 -1.698023 2.020949 1.598432 1.785578 -29.654069 18.207923 2.247861 0.000001 -0.000000 -0.000000 9.352182 -15.455729 -10.488675 -30.704511 6.413660 -45.826154 -0.000004 -80.065424 -0.000029 -124.510018 16.063399 8.101307 18.969850 -26.299462 19.846455 -17.058331 10.828520 -5.101629 -13.518932 -6.310821 8.657663 -0.000000 -0.000000 -0.000001 0.239237 7.441644 -81.651558 1.699473 4.126618 -44.752339 0.482506 2.330144 -23.395406 -0.000003 -0.000006 -0.000003 1.619480 7.144754 -72.641726 3.214348 5.225121 -63.175077 0.726330 2.827232 -28.810278 -0.000001 -0.000001 0.000003 2.696433 7.445069 -71.440521 3.044922 5.136300 -61.299179 0.561322 2.504293 -25.264030 0.000002 -0.000001 -0.000003 2.325138 7.321720 -71.442460 2.375325 4.709716 -53.508545 1.016444 3.299592 -34.235275 0.000000 0.000002 -0.000003 -0.842920 20.245278 19.369795 -0.772968 36.375030 28.079377 -0.000059 104.100436 0.000077 -27.918861 -31.728172 7.719919 49.623541 29.236198 -22.669688 41.177161 -25.649918 33.565575 10.610232 -38.071239 -16.300882 -0.000001 0.000001 0.000003 -1.933754 2.177482 20.753241 2.829500 -4.284292 66.870639 3.310608 -4.458648 73.176222 -0.000000 -0.000002 0.000001 12.563428 -8.858291 77.208868 5.605434 -4.559801 101.760926 4.771096 -4.655764 91.403279 0.000001 -0.000000 -0.000004 8.203323 -7.154440 86.549794 5.350307 -4.605401 98.568379 4.922995 -4.649575 93.275693 -0.000001 0.000001 -0.000005 4.990108 -6.924851 91.961988 2.500098 -4.128455 62.382071 1.659935 -3.566166 49.910170 -0.000000 -0.000002 0.000007 -52.553320 13.172506 5.531895 57.687429 -1.323360 0.541470 -14.678707 5.906096 0.542304 1.184626 0.000002 -0.000000 -0.000000 0.000000 -0.000000 -44.169279 4.158151 8.228506 60.447154 -0.795363 -6.908522 -26.980822 -3.722645 -4.676719 -0.413924 0.000000 -0.000000 -0.000000 -0.000000 0.000000 
-0.899096 77.019424 12.316911 12.198118 -10.703881 9.379630 19.646541 -9.494168 -3.635616 4.139290 -2.417905 -1.785597 4.199474 -2.329722 -1.707642 1.980909 1.573251 1.781886 -30.114786 18.075539 2.295085 0.000000 0.000000 -0.000000 9.192293 -15.670851 -10.518847 -30.914731 6.881042 -45.559875 0.000076 -79.638592 0.000048 -123.169580 17.170114 6.410571 17.863486 -26.061405 19.235549 -16.450934 10.499817 -5.022622 -13.310359 -6.127796 8.826901 0.000000 0.000000 0.000003 0.444892 7.467610 -81.609224 1.700254 4.127399 -44.762915 0.487293 2.341152 -23.512774 0.000002 0.000001 -0.000004 1.719867 7.183439 -72.804646 3.173014 5.204106 -62.720534 0.748903 2.867834 -29.264605 -0.000002 -0.000002 0.000001 2.689922 7.441079 -71.371611 3.053233 5.140817 -61.391810 0.568257 2.518912 -25.422053 0.000001 -0.000000 0.000004 2.119335 7.243778 -71.186820 2.407357 4.733183 -53.897579 1.017045 3.300451 -34.245646 -0.000003 0.000001 -0.000001 -0.889660 20.662794 19.433942 -0.399384 36.359938 27.209850 0.000037 104.176989 -0.000000 -27.531577 -31.472040 7.413551 48.719712 29.056847 -21.491564 40.741201 -25.868903 32.339184 10.244648 -38.222398 -16.737923 -0.000001 0.000000 0.000002 -1.905893 2.163528 20.563668 2.806835 -4.274575 66.566846 3.304635 -4.456845 73.099355 -0.000001 0.000001 -0.000001 12.261684 -8.871568 76.676011 5.604395 -4.560022 101.747825 4.771094 -4.655762 91.403279 0.000001 0.000000 -0.000004 8.181937 -7.188030 86.020113 5.292540 -4.613719 97.849597 4.846493 -4.653323 92.332157 -0.000002 -0.000003 -0.000004 5.085718 -6.922831 91.651843 2.492272 -4.124382 62.273430 1.644117 -3.552813 49.655223 -0.000001 -0.000003 0.000000 -55.865015 12.073992 5.970157 54.685954 -1.517999 1.007474 -13.482738 6.899964 -1.270089 1.163254 0.000001 0.000000 0.000000 0.000000 -0.000000 -42.717523 4.523010 7.519116 60.940608 -1.011260 -6.788321 -29.393320 -3.742325 -4.624360 -0.413860 0.000003 -0.000001 -0.000000 -0.000000 -0.000000 
-0.999279 76.769318 13.936079 12.572914 -10.450540 9.722142 19.519718 -9.580235 -3.706252 4.121300 -2.413635 -1.785345 4.181525 -2.328595 -1.709615 1.941979 1.563148 1.794511 -30.637333 18.078551 2.407741 0.000000 -0.000000 -0.000000 9.036249 -15.815455 -10.454900 -31.010988 7.311308 -45.419467 0.000067 -79.280301 0.000024 -122.367484 17.913138 4.783775 16.741687 -25.814294 18.620767 -15.833871 10.164705 -4.939393 -13.098448 -5.940627 8.997664 -0.000000 0.000001 0.000003 0.654010 7.494342 -81.566215 1.701027 4.128195 -44.773710 0.492192 2.352337 -23.632151 0.000001 -0.000002 -0.000004 1.822164 7.222249 -72.970456 3.131174 5.182403 -62.258212 0.772177 2.908952 -29.726752 0.000001 0.000001 0.000003 2.683333 7.437005 -71.301506 3.061665 5.145413 -61.486025 0.575339 2.533749 -25.582776 0.000002 0.000001 0.000006 1.910701 7.162758 -70.927177 2.440097 4.756781 -54.293314 1.017648 3.301357 -34.256175 -0.000002 0.000005 0.000006 -0.945661 21.072621 19.600599 -0.047151 36.384974 26.340949 0.000052 104.223858 -0.000005 -27.016991 -31.181866 7.277357 47.817717 28.856033 -20.314364 40.287905 -26.076621 31.106512 9.875584 -38.371084 -17.179268 0.000000 0.000000 -0.000000 -1.878011 2.149344 20.373297 2.784112 -4.264666 66.261782 3.298628 -4.455040 73.022167 -0.000001 -0.000004 -0.000004 11.958815 -8.879937 76.140401 5.603369 -4.560241 101.734978 4.771090 -4.655764 91.403285 0.000002 -0.000000 0.000001 8.159825 -7.221777 85.488062 5.234423 -4.621329 97.127674 4.769578 -4.655806 91.384516 0.000000 0.000004 -0.000001 5.181790 -6.921990 91.341609 2.484444 -4.120259 62.164345 1.628288 -3.539307 49.399131 -0.000002 0.000001 0.000007 -59.057524 10.939391 6.332993 52.222175 -1.202740 1.502360 -11.303877 7.461922 -2.479608 1.122834 0.000000 -0.000001 -0.000000 0.000000 0.000000 -41.362270 4.808917 6.923702 61.668303 -1.217743 -6.698872 -31.879874 -3.754184 -4.585228 -0.413808 0.000002 0.000001 0.000000 -0.000000 0.000000 
